<svg xmlns="http://www.w3.org/2000/svg" width="27.531" height="25.718" viewBox="0 0 27.531 25.718"><defs><style>.a{fill:#fff;}</style></defs><g transform="translate(336.166 -265.257)"><g transform="translate(-336.166 265.257)"><path class="a" d="M-240.635,265.262a10.428,10.428,0,0,1,8.988,15.435c-.46.842-.18,1.087.437,1.477,2.11,1.332,4.192,2.709,6.3,4.044a2.077,2.077,0,0,1,1.191,2.183,3.148,3.148,0,0,1-2.164,2.477,2.13,2.13,0,0,1-2.333-.884c-1.723-1.942-3.505-3.83-5.219-5.78-.439-.5-.706-.424-1.195-.092-3.786,2.574-7.765,2.838-11.661.443-3.92-2.41-5.4-6.124-4.793-10.652a10.3,10.3,0,0,1,7.717-8.321A9.524,9.524,0,0,1-240.635,265.262Zm-8.5,10.409a8.311,8.311,0,0,0,8.262,8.4,8.454,8.454,0,0,0,8.49-8.325,8.509,8.509,0,0,0-8.322-8.424A8.376,8.376,0,0,0-249.137,275.671Z" transform="translate(251.215 -265.257)"/><path class="a" d="M-223.384,296.187c-1.711,0-3.423.013-5.134,0-1.087-.012-1.27-.334-.71-1.242q2.509-4.068,5.045-8.12c.569-.91.981-.894,1.562.039q2.525,4.056,5.039,8.118c.512.829.314,1.2-.669,1.211-1.711.018-3.423.005-5.134.005Zm.941-6.413c0-.229-.009-.46,0-.688.035-.719-.329-1-1.017-.987-.652.01-.936.3-.942.961a19.437,19.437,0,0,0,.334,3.61c.067.376.159.727.634.723.445,0,.594-.287.662-.7A19.211,19.211,0,0,0-222.443,289.774Zm-.22,4.862c-.1-.413-.3-.74-.773-.719a.694.694,0,0,0-.707.763.671.671,0,0,0,.7.668A.736.736,0,0,0-222.663,294.636Z" transform="translate(233.818 -282.023)"/></g></g></svg>