<svg xmlns="http://www.w3.org/2000/svg" width="218.46" height="60.325" viewBox="0 0 218.46 60.325"><defs><style>.a{fill:#eeedec;}.b{fill:#fefefe;}.c{fill:#fff;}</style></defs><g transform="translate(509.883 -406.559)"><path class="a" d="M-456.424,460.366c-7.789,0-15.654-5.57-18.547-13.841A20.823,20.823,0,0,1-468,423.262a20.4,20.4,0,0,1,23.877-1.028c1.535,1.008,3.641,2.029,2.1,4.349-1.415,2.127-2.991.686-4.5-.233-6.042-3.682-12.189-3.754-17.976.3-5.364,3.756-7.785,9.21-6.575,15.708,1.318,7.075,5.755,11.543,12.858,13.032,5.281,1.108,9.887-.546,13.851-4.082,1.344-1.2,2.727-2.711,4.442-.911,1.763,1.852.051,3.195-1.206,4.378C-445.139,458.55-449.911,460.439-456.424,460.366Z" transform="translate(-8.319 -3.032)"/><path class="a" d="M-458.2,478.04c-13.249-.039-25.417-9.2-28.835-21.67-.486-1.774-1.055-3.693,1.221-4.382,2.354-.713,2.8,1.3,3.363,3.027,3.618,11.148,12.682,17.959,24,18.094,11.487.137,20.648-6.5,24.589-17.846.579-1.667.977-3.809,3.316-3.113,2.553.76,1.723,2.914,1.173,4.719A30.288,30.288,0,0,1-458.2,478.04Z" transform="translate(-5.521 -11.157)"/><path class="a" d="M-256.964,434.84c-.026-8.313,5.878-14.477,13.862-14.469a14.031,14.031,0,0,1,13.995,14.484,13.968,13.968,0,0,1-14.019,14.059C-251.04,448.935-256.938,442.936-256.964,434.84Zm5.248-.058c0,5.2,3.537,8.91,8.526,8.954a8.874,8.874,0,0,0,8.827-9.193,8.917,8.917,0,0,0-8.689-8.99C-248.147,425.516-251.72,429.322-251.716,434.782Z" transform="translate(-62.316 -3.403)"/><path class="a" d="M-266.381,447.973c-4.495,1.581-6.248-.733-8.042-3.846-1.273-2.208-1.7-6.575-5.544-5.283-2.834.951-.929,4.409-1.172,6.706-.2,1.876-.24,2.977-2.62,2.927-2.21-.047-3.061-.509-3-2.934.17-7.139.138-14.285.019-21.426-.035-2.135.621-2.887,2.751-2.777,2.874.148,5.764-.023,8.642.072a8.233,8.233,0,0,1,7.954,5.808c1.219,3.519.682,7.1-2.477,9.526-1.8,1.383-1.958,2.356-.68,4.163C-269,443.109-267.79,445.551-266.381,447.973Zm-11.573-13.759c3.2.13,5.887-.511,5.791-3.984-.1-3.507-2.973-3.5-5.738-3.806-4.024-.446-3.185,2.143-3.417,4.431C-281.618,433.81-280.376,434.734-277.955,434.214Z" transform="translate(-54.974 -3.64)"/><path class="a" d="M-429.5,426.964c.109,1.672-.417,2.476-1.438,2.9a2.056,2.056,0,0,1-2.615-.894,15.294,15.294,0,0,1-1.159-2.331c-4.742-10.251-12.866-15.543-24.051-15.27-10.915.266-18.507,5.978-22.851,16-.716,1.65-1.124,4.03-3.776,2.879-2.6-1.13-1.238-3.2-.6-4.829a29.9,29.9,0,0,1,27.384-18.851A30.125,30.125,0,0,1-430.462,424.3C-430.012,425.322-429.7,426.4-429.5,426.964Z" transform="translate(-5.657 0)"/><path class="a" d="M-383.135,448.363c2.981-8.621,5.889-16.582,8.439-24.657.885-2.8,2.755-2.19,4.654-2.393,2.065-.221,3.1.454,3.779,2.521,2.371,7.222,5.008,14.357,7.4,21.572.271.816,1.808,2.329.113,2.757-1.595.4-4.514,1.307-4.983-.894-.869-4.082-3.556-3.476-6.23-3.388-2.9.1-6.149-1.135-7.315,3.534C-377.789,449.464-380.787,448.087-383.135,448.363Zm12.676-20.938c-1.157,3.455-2.1,6.383-3.122,9.281-.514,1.455-.142,1.934,1.435,2.083,5.168.489,5.53.11,3.909-4.889C-368.883,431.909-369.593,429.94-370.459,427.425Z" transform="translate(-31.229 -3.625)"/><path class="a" d="M-406.639,441.725a6.916,6.916,0,0,1-4.189,6.566,7.313,7.313,0,0,1-8.1-.928,17.873,17.873,0,0,0-21.2.051,7.487,7.487,0,0,1-10.443-.981,7.441,7.441,0,0,1,.446-10.205c2.966-2.916,7.99-3.36,10.365-.02,3.852,5.413,9.111,4.383,14.26,4.243,2.54-.069,4.153-1.953,5.771-3.8,2.273-2.589,5.211-3.474,8.481-2.014A7.141,7.141,0,0,1-406.639,441.725Zm-38.064,3.806c2.463-.316,3.984-1.756,3.817-4.194a3.677,3.677,0,0,0-3.91-3.708,3.732,3.732,0,0,0-4.016,3.99C-448.784,444.021-447.206,445.413-444.7,445.531Zm30.512-.069c2.408-.124,3.886-1.4,3.956-3.7.075-2.434-1.277-4.1-3.853-4.1a3.643,3.643,0,0,0-3.914,3.7C-418.139,443.888-416.642,445.225-414.191,445.462Z" transform="translate(-14.167 -6.729)"/><path class="a" d="M-337.76,448.914c-3.4-.031-6.512-.852-8.663-3.672-.76-1-2.736-2.188-.682-3.623,1.384-.966,3.024-3.13,4.683,0a4.368,4.368,0,0,0,3.5,1.925c2.188.282,4.58.5,5.406-2.029.959-2.938-1.751-3.368-3.628-4.153-1.95-.815-4.05-1.318-5.908-2.293a7.521,7.521,0,0,1-1.186-12.759c4.134-3.323,11.283-2.185,14.356,2.263.659.956,1.542,2.013-.1,2.668-1.216.486-2.295,2.837-3.987.528a4.969,4.969,0,0,0-5.281-2.033c-1.268.255-2.388.8-2.569,2.332a2.479,2.479,0,0,0,1.592,2.715c1.7.756,3.464,1.394,5.226,2.01,5.661,1.977,7.652,4.742,6.828,9.565C-328.88,446.484-332.478,448.947-337.76,448.914Z" transform="translate(-39.884 -3.407)"/><path class="b" d="M-316.967,434.876c0-3.632.087-7.268-.035-10.9-.063-1.869.33-2.763,2.452-2.618,2.617.179,5.264-.09,7.887.052,5.3.286,8.7,3.993,8.688,9.3-.008,5.342-3.364,9.006-8.618,9.382a9.77,9.77,0,0,1-2.251-.018c-2.455-.4-3.087.773-2.788,2.964.117.861-.081,1.765.039,2.625.294,2.089-.451,2.829-2.629,2.8-2.02-.031-2.913-.429-2.8-2.684C-316.83,442.149-316.968,438.509-316.967,434.876Zm5.334-4.134c0,4.268,0,4.268,2.982,4.258,4.042-.014,5.568-1.25,5.48-4.44-.1-3.675-2.7-3.819-5.475-4.144C-312.669,425.944-311.471,428.737-311.633,430.742Z" transform="translate(-47.517 -3.643)"/><path class="a" d="M-502.323,449.862a7.793,7.793,0,0,1-7.371-5.856,7.738,7.738,0,0,1,3.768-8.3c2.9-1.642,6.767-1.345,8.911,1.338,2.206,2.76,4.611,4.463,8.217,4.273a1.746,1.746,0,0,1,2.026,1.739,1.478,1.478,0,0,1-1.686,1.595c-4.119-.518-7.183,1.3-9.994,4.056A4.99,4.99,0,0,1-502.323,449.862Zm3.931-7.637c-.176-2.524-1.555-3.872-4.125-3.77-2.4.1-3.66,1.5-3.634,3.888.028,2.632,1.539,3.9,4.082,3.816C-499.655,446.081-498.486,444.654-498.392,442.225Z" transform="translate(0 -6.934)"/><g transform="translate(-413.942 452.922)"><path class="c" d="M-381.051,472.617l-.667,2.019h-.857l2.18-6.418h1l2.19,6.418h-.885l-.686-2.019Zm2.1-.647-.629-1.846c-.143-.42-.238-.8-.333-1.172h-.02c-.095.381-.2.771-.323,1.162l-.628,1.856Z" transform="translate(382.575 -468.114)"/><path class="c" d="M-369.629,474.328a5.969,5.969,0,0,1-1.971.353,3.3,3.3,0,0,1-2.4-.848,3.3,3.3,0,0,1-.895-2.39,3.218,3.218,0,0,1,3.475-3.314,3.954,3.954,0,0,1,1.6.3l-.2.675a3.331,3.331,0,0,0-1.419-.276,2.4,2.4,0,0,0-2.58,2.58,2.353,2.353,0,0,0,2.476,2.59,2.694,2.694,0,0,0,1.1-.172V471.91h-1.3v-.667h2.113Z" transform="translate(380.682 -468.092)"/><path class="c" d="M-362.906,471.627H-365.4v2.314h2.78v.695h-3.609v-6.418h3.466v.7H-365.4v2.028h2.494Z" transform="translate(378.548 -468.114)"/><path class="c" d="M-360.014,474.636v-6.418h.905l2.057,3.247a18.172,18.172,0,0,1,1.152,2.084l.019-.009c-.076-.857-.095-1.638-.095-2.637v-2.686h.781v6.418h-.838l-2.038-3.256a20.379,20.379,0,0,1-1.2-2.143l-.029.01c.047.809.066,1.58.066,2.647v2.742Z" transform="translate(377.016 -468.114)"/><path class="c" d="M-350.722,468.923h-1.953v-.7h4.752v.7h-1.962v5.713h-.837Z" transform="translate(375.208 -468.114)"/><path class="c" d="M-341.867,472.617l-.666,2.019h-.857l2.18-6.418h1l2.189,6.418h-.885l-.686-2.019Zm2.1-.647-.629-1.846c-.142-.42-.237-.8-.333-1.172h-.019c-.095.381-.2.771-.324,1.162l-.628,1.856Z" transform="translate(372.92 -468.114)"/><path class="c" d="M-335.236,473.593a2.938,2.938,0,0,0,1.485.419c.847,0,1.342-.448,1.342-1.095,0-.6-.343-.943-1.209-1.277-1.048-.371-1.695-.914-1.695-1.818a1.847,1.847,0,0,1,2.075-1.742,2.915,2.915,0,0,1,1.419.314l-.229.675a2.558,2.558,0,0,0-1.219-.3c-.876,0-1.209.524-1.209.962,0,.6.39.9,1.276,1.238,1.085.418,1.638.943,1.638,1.885,0,.99-.733,1.847-2.247,1.847a3.311,3.311,0,0,1-1.638-.409Z" transform="translate(370.963 -468.08)"/><path class="c" d="M-329.008,473.593a2.938,2.938,0,0,0,1.485.419c.847,0,1.342-.448,1.342-1.095,0-.6-.343-.943-1.209-1.277-1.048-.371-1.695-.914-1.695-1.818a1.847,1.847,0,0,1,2.075-1.742,2.915,2.915,0,0,1,1.419.314l-.229.675a2.558,2.558,0,0,0-1.219-.3c-.876,0-1.209.524-1.209.962,0,.6.39.9,1.276,1.238,1.085.418,1.638.943,1.638,1.885,0,.99-.733,1.847-2.247,1.847a3.311,3.311,0,0,1-1.638-.409Z" transform="translate(369.428 -468.08)"/><path class="c" d="M-321.731,468.218v6.418h-.829v-6.418Z" transform="translate(367.788 -468.114)"/><path class="c" d="M-319.76,473.593a2.935,2.935,0,0,0,1.485.419c.847,0,1.342-.448,1.342-1.095,0-.6-.343-.943-1.209-1.277-1.048-.371-1.695-.914-1.695-1.818a1.847,1.847,0,0,1,2.075-1.742,2.912,2.912,0,0,1,1.418.314l-.228.675a2.561,2.561,0,0,0-1.219-.3c-.876,0-1.21.524-1.21.962,0,.6.39.9,1.276,1.238,1.086.418,1.638.943,1.638,1.885,0,.99-.734,1.847-2.247,1.847a3.306,3.306,0,0,1-1.638-.409Z" transform="translate(367.15 -468.08)"/><path class="c" d="M-312.334,468.923h-1.952v-.7h4.752v.7H-311.5v5.713h-.838Z" transform="translate(365.749 -468.114)"/><path class="c" d="M-307.1,472.617l-.667,2.019h-.857l2.18-6.418h1l2.19,6.418h-.885l-.686-2.019Zm2.1-.647-.629-1.846c-.143-.42-.238-.8-.333-1.172h-.02c-.095.381-.2.771-.323,1.162l-.629,1.856Z" transform="translate(364.355 -468.114)"/><path class="c" d="M-300.251,474.636v-6.418h.9l2.057,3.247a18.3,18.3,0,0,1,1.152,2.084l.018-.009c-.076-.857-.095-1.638-.095-2.637v-2.686h.781v6.418h-.838l-2.037-3.256a20.389,20.389,0,0,1-1.2-2.143l-.029.01c.047.809.066,1.58.066,2.647v2.742Z" transform="translate(362.291 -468.114)"/><path class="c" d="M-287.58,474.392a4.114,4.114,0,0,1-1.695.3,3,3,0,0,1-3.17-3.247,3.193,3.193,0,0,1,3.351-3.37,3.454,3.454,0,0,1,1.524.285l-.2.677a3.005,3.005,0,0,0-1.295-.268,2.387,2.387,0,0,0-2.5,2.647A2.333,2.333,0,0,0-289.1,474a3.317,3.317,0,0,0,1.352-.267Z" transform="translate(360.368 -468.08)"/><path class="c" d="M-281.291,471.627h-2.494v2.314H-281v.695h-3.609v-6.418h3.466v.7h-2.637v2.028h2.494Z" transform="translate(358.439 -468.114)"/><path class="c" d="M-275.72,468.279a9.537,9.537,0,0,1,1.59-.124,2.634,2.634,0,0,1,1.8.534,1.723,1.723,0,0,1,.562,1.342,1.89,1.89,0,0,1-.5,1.371,2.657,2.657,0,0,1-1.962.705,2.856,2.856,0,0,1-.666-.057v2.571h-.828Zm.828,3.094a2.744,2.744,0,0,0,.686.067c1,0,1.608-.485,1.608-1.371,0-.848-.6-1.257-1.513-1.257a3.447,3.447,0,0,0-.781.067Z" transform="translate(356.247 -468.099)"/><path class="c" d="M-269,468.289a8.539,8.539,0,0,1,1.59-.134,2.624,2.624,0,0,1,1.856.524,1.6,1.6,0,0,1,.5,1.219,1.684,1.684,0,0,1-1.21,1.638v.029a1.6,1.6,0,0,1,.943,1.3,10.2,10.2,0,0,0,.5,1.761h-.857a8.366,8.366,0,0,1-.429-1.533c-.19-.885-.533-1.219-1.285-1.248h-.781v2.781H-269Zm.828,2.922h.847c.885,0,1.448-.485,1.448-1.219,0-.827-.6-1.19-1.476-1.2a3.381,3.381,0,0,0-.819.077Z" transform="translate(354.591 -468.099)"/><path class="c" d="M-256.807,471.326c0,2.21-1.343,3.381-2.98,3.381a2.942,2.942,0,0,1-2.885-3.256c0-2.038,1.266-3.37,2.98-3.37C-257.94,468.08-256.807,469.422-256.807,471.326Zm-4.98.106c0,1.371.742,2.6,2.047,2.6s2.057-1.209,2.057-2.666c0-1.275-.666-2.609-2.047-2.609S-261.787,470.022-261.787,471.431Z" transform="translate(353.032 -468.08)"/><path class="c" d="M-248.7,474.328a5.973,5.973,0,0,1-1.971.353,3.3,3.3,0,0,1-2.4-.848,3.3,3.3,0,0,1-.895-2.39,3.218,3.218,0,0,1,3.475-3.314,3.957,3.957,0,0,1,1.6.3l-.2.675a3.327,3.327,0,0,0-1.418-.276,2.4,2.4,0,0,0-2.58,2.58,2.353,2.353,0,0,0,2.476,2.59,2.687,2.687,0,0,0,1.1-.172V471.91h-1.3v-.667h2.114Z" transform="translate(350.888 -468.092)"/><path class="c" d="M-245.3,468.289a8.54,8.54,0,0,1,1.59-.134,2.626,2.626,0,0,1,1.857.524,1.6,1.6,0,0,1,.5,1.219,1.684,1.684,0,0,1-1.21,1.638v.029a1.6,1.6,0,0,1,.943,1.3,10.111,10.111,0,0,0,.5,1.761h-.858a8.325,8.325,0,0,1-.428-1.533c-.191-.885-.533-1.219-1.286-1.248h-.781v2.781h-.828Zm.828,2.922h.847c.886,0,1.448-.485,1.448-1.219,0-.827-.6-1.19-1.476-1.2a3.381,3.381,0,0,0-.819.077Z" transform="translate(348.753 -468.099)"/><path class="c" d="M-237.564,472.617l-.667,2.019h-.857l2.18-6.418h1l2.19,6.418h-.885l-.686-2.019Zm2.1-.647-.629-1.846c-.143-.42-.238-.8-.333-1.172h-.02c-.095.381-.2.771-.323,1.162l-.629,1.856Z" transform="translate(347.221 -468.114)"/><path class="c" d="M-225.411,471.818c-.047-.9-.1-1.972-.095-2.771h-.029c-.219.752-.486,1.552-.809,2.437l-1.133,3.113h-.629l-1.038-3.057c-.3-.9-.561-1.732-.742-2.494h-.019c-.02.8-.067,1.875-.124,2.837l-.171,2.751h-.791l.448-6.418h1.057l1.095,3.1c.267.79.486,1.5.647,2.162h.029c.162-.648.391-1.353.676-2.162l1.143-3.1h1.057l.4,6.418h-.81Z" transform="translate(345.226 -468.114)"/></g></g></svg>