<svg xmlns="http://www.w3.org/2000/svg" width="21.562" height="27.277" viewBox="0 0 21.562 27.277"><defs><style>.a{fill:#fff;}</style></defs><path class="a" d="M-341.407,287.641c0,3.1.006,6.208,0,9.311,0,.872-.057,1.744-.088,2.616a1.254,1.254,0,0,1-.3.743,2.213,2.213,0,0,1-1.769.929c-1.133.015-2.267.035-3.4.035q-6.365,0-12.73-.006c-.478,0-.959-.016-1.434-.064a2.058,2.058,0,0,1-1.761-1.816c-.051-.962-.059-1.927-.06-2.89q-.009-10.276,0-20.551a1.551,1.551,0,0,1,.179-.58,2.13,2.13,0,0,1,1.334-1.229,2.564,2.564,0,0,1,.715-.1c.957-.021,1.915-.036,2.873-.037q6.62,0,13.24,0a9.827,9.827,0,0,1,1.4.068,2.139,2.139,0,0,1,1.61,1.206,1.759,1.759,0,0,1,.134.743c.035,1.066.066,2.133.07,3.2.009,2.807,0,5.614,0,8.42Zm-2.745-10.092H-360.2v4.105h16.048Zm-12.773,9.235c-.26,0-.5-.006-.731,0-.327.01-.655.012-.979.049a.464.464,0,0,0-.46.457,1.879,1.879,0,0,0,.052.589.421.421,0,0,0,.452.34c.485,0,.969.018,1.454.028.065,0,.129.006.209.009,0,.093,0,.17,0,.248.006.412-.012.826.024,1.235.053.6.2.709.8.7.387-.008.56-.149.588-.541.033-.458.03-.92.042-1.379,0-.083,0-.166,0-.268.087,0,.152,0,.217,0,.466-.009.933-.015,1.4-.029.326-.01.452-.1.525-.415a1.539,1.539,0,0,0,.03-.5.466.466,0,0,0-.453-.464c-.446-.038-.894-.039-1.342-.053-.119,0-.239,0-.376,0,0-.1,0-.178,0-.256-.007-.436-.005-.872-.025-1.308-.022-.478-.243-.612-.735-.625a1.074,1.074,0,0,0-.2.022.5.5,0,0,0-.457.466,5.51,5.51,0,0,0-.038.58C-356.93,286.027-356.926,286.39-356.926,286.784Zm.7,9.091.171.162c.314.3.619.616.946.9a.883.883,0,0,0,.414.187c.337.06.511-.2.694-.414a.486.486,0,0,0,.006-.636c-.148-.183-.315-.352-.479-.522-.225-.235-.454-.466-.71-.727.247-.238.492-.455.715-.693a6.428,6.428,0,0,0,.5-.62.4.4,0,0,0,0-.508c-.434-.566-.7-.689-1.229-.18-.13.127-.268.246-.4.369-.208.193-.415.387-.63.588l-.15-.143-.979-.948a.493.493,0,0,0-.525-.165,1.235,1.235,0,0,0-.393.279.6.6,0,0,0-.023.963c.2.219.412.427.619.64l.429.441-.152.159c-.311.323-.624.644-.933.968a.531.531,0,0,0-.167.527.878.878,0,0,0,.833.619.737.737,0,0,0,.391-.194C-356.915,296.594-356.578,296.237-356.223,295.875Zm7.982-.319v0c.436,0,.872,0,1.308,0,.363,0,.727-.01,1.09-.025a.532.532,0,0,0,.57-.453,1.609,1.609,0,0,0,.014-.469.77.77,0,0,0-.506-.512c-1.514.008-3.029.01-4.543.031-.631.009-.794.206-.772.842a1.116,1.116,0,0,0,.009.127.6.6,0,0,0,.539.466Zm.014-7.308v-.03c.793,0,1.587.005,2.38,0a.532.532,0,0,0,.579-.465,1.522,1.522,0,0,0,.011-.451.712.712,0,0,0-.612-.514c-.739,0-1.478,0-2.217,0s-1.466,0-2.2.026c-.668.021-.834.223-.792.895,0,.024,0,.048.006.072a.6.6,0,0,0,.536.469Zm.06,5.108c.478.012.708-.1.731-.773.015-.435-.277-.683-.755-.681-.495,0-.706.258-.7.843C-348.884,293.156-348.64,293.362-348.166,293.356Zm.733,3.663a.632.632,0,0,0-.721-.725c-.5,0-.732.222-.732.711,0,.525.216.74.74.739A.646.646,0,0,0-347.433,297.019Z" transform="translate(362.96 -274)"/></svg>